<mxfile host="Electron" modified="2023-12-22T19:14:33.721Z" agent="Mozilla/5.0 (Macintosh; Intel Mac OS X 10_15_7) AppleWebKit/537.36 (KHTML, like Gecko) draw.io/22.1.11 Chrome/114.0.5735.289 Electron/25.9.8 Safari/537.36" etag="cfB5slsyH7mjm8VnaZ2D" version="22.1.11" type="device">
  <diagram name="Page-1" id="Lq5k23vEnd_ByNFd-WHm">
    <mxGraphModel dx="2931" dy="1734" grid="1" gridSize="10" guides="1" tooltips="1" connect="1" arrows="1" fold="1" page="1" pageScale="1" pageWidth="2100" pageHeight="1570" math="0" shadow="0">
      <root>
        <mxCell id="0" />
        <mxCell id="1" parent="0" />
        <mxCell id="l-hG6_dfn08n77CdrC6H-65" value="" style="rounded=0;whiteSpace=wrap;html=1;" parent="1" vertex="1">
          <mxGeometry x="70" y="155" width="1050" height="80" as="geometry" />
        </mxCell>
        <mxCell id="dMLY6UHvoXBjjhsfL4RV-3" value="" style="rounded=0;whiteSpace=wrap;html=1;dashed=1;fillColor=none;fontColor=#000000;strokeColor=#994C00;" parent="1" vertex="1">
          <mxGeometry x="1235" y="789" width="775" height="701" as="geometry" />
        </mxCell>
        <mxCell id="dMLY6UHvoXBjjhsfL4RV-2" value="" style="rounded=0;whiteSpace=wrap;html=1;dashed=1;fillColor=none;fontColor=#000000;strokeColor=#B09500;movable=1;resizable=1;rotatable=1;deletable=1;editable=1;locked=0;connectable=1;" parent="1" vertex="1">
          <mxGeometry x="230" y="305" width="990" height="650" as="geometry" />
        </mxCell>
        <mxCell id="iGXe0XGLhi4e1AOO7spn-7" value="&lt;blockquote style=&quot;margin: 0px 0px 0px 40px; border: none; padding: 0px; font-size: 16px;&quot;&gt;&lt;/blockquote&gt;&lt;b style=&quot;font-size: 16px; background-color: initial;&quot;&gt;Receiver&#39;s&amp;nbsp;&lt;/b&gt;&lt;b style=&quot;font-size: 16px; background-color: initial;&quot;&gt;Hush Line Server&lt;/b&gt;&lt;br style=&quot;font-size: 16px;&quot;&gt;&lt;font style=&quot;font-size: 16px;&quot;&gt;&lt;b style=&quot;font-size: 16px;&quot;&gt;(local or VPS)&lt;/b&gt;&lt;/font&gt;&lt;font style=&quot;font-size: 16px;&quot;&gt;&lt;b style=&quot;font-size: 16px;&quot;&gt;&lt;br style=&quot;font-size: 16px;&quot;&gt;&lt;br style=&quot;font-size: 16px;&quot;&gt;&lt;br style=&quot;font-size: 16px;&quot;&gt;&lt;/b&gt;&lt;/font&gt;" style="rounded=0;whiteSpace=wrap;html=1;strokeWidth=3;align=center;spacingLeft=0;spacingRight=16;spacing=2;spacingTop=10;verticalAlign=top;fontSize=16;" parent="1" vertex="1">
          <mxGeometry x="700" y="445" width="500" height="485" as="geometry" />
        </mxCell>
        <mxCell id="iGXe0XGLhi4e1AOO7spn-36" style="edgeStyle=orthogonalEdgeStyle;rounded=0;orthogonalLoop=1;jettySize=auto;html=1;exitX=0.5;exitY=1;exitDx=0;exitDy=0;entryX=0.25;entryY=0;entryDx=0;entryDy=0;" parent="1" source="iGXe0XGLhi4e1AOO7spn-1" target="iGXe0XGLhi4e1AOO7spn-3" edge="1">
          <mxGeometry relative="1" as="geometry" />
        </mxCell>
        <mxCell id="iGXe0XGLhi4e1AOO7spn-1" value="&lt;br&gt;&lt;br&gt;&lt;br&gt;SENDER" style="shape=actor;whiteSpace=wrap;html=1;strokeColor=#33FFFF;" parent="1" vertex="1">
          <mxGeometry x="265" y="326" width="60" height="70" as="geometry" />
        </mxCell>
        <mxCell id="iGXe0XGLhi4e1AOO7spn-2" value="&lt;br&gt;&lt;br&gt;&lt;br&gt;RECEIVER" style="shape=actor;whiteSpace=wrap;html=1;" parent="1" vertex="1">
          <mxGeometry x="1716" y="1376" width="70" height="80" as="geometry" />
        </mxCell>
        <mxCell id="iGXe0XGLhi4e1AOO7spn-3" value="Unknown Device" style="rounded=1;whiteSpace=wrap;html=1;verticalAlign=top;spacingTop=15;arcSize=8;" parent="1" vertex="1">
          <mxGeometry x="260" y="425" width="140" height="180" as="geometry" />
        </mxCell>
        <mxCell id="dMLY6UHvoXBjjhsfL4RV-60" style="edgeStyle=orthogonalEdgeStyle;rounded=0;orthogonalLoop=1;jettySize=auto;html=1;exitX=1;exitY=0.5;exitDx=0;exitDy=0;entryX=0.134;entryY=-0.1;entryDx=0;entryDy=0;entryPerimeter=0;" parent="1" source="iGXe0XGLhi4e1AOO7spn-4" target="iGXe0XGLhi4e1AOO7spn-5" edge="1">
          <mxGeometry relative="1" as="geometry">
            <Array as="points">
              <mxPoint x="430" y="505" />
              <mxPoint x="430" y="640" />
              <mxPoint x="461" y="640" />
            </Array>
          </mxGeometry>
        </mxCell>
        <mxCell id="iGXe0XGLhi4e1AOO7spn-4" value="Unknown Browser" style="rounded=1;whiteSpace=wrap;html=1;" parent="1" vertex="1">
          <mxGeometry x="270" y="485" width="120" height="40" as="geometry" />
        </mxCell>
        <mxCell id="zB_0BsLLrJVKlSQWmKCA-2" style="edgeStyle=orthogonalEdgeStyle;rounded=0;orthogonalLoop=1;jettySize=auto;html=1;exitX=0.5;exitY=0;exitDx=0;exitDy=0;entryX=0.5;entryY=1;entryDx=0;entryDy=0;" edge="1" parent="1" source="iGXe0XGLhi4e1AOO7spn-5" target="iGXe0XGLhi4e1AOO7spn-8">
          <mxGeometry relative="1" as="geometry" />
        </mxCell>
        <mxCell id="zB_0BsLLrJVKlSQWmKCA-5" style="edgeStyle=orthogonalEdgeStyle;rounded=0;orthogonalLoop=1;jettySize=auto;html=1;exitX=0.25;exitY=1;exitDx=0;exitDy=0;entryX=0.5;entryY=0;entryDx=0;entryDy=0;" edge="1" parent="1" source="iGXe0XGLhi4e1AOO7spn-5" target="PfSQIYIqpnTDep6yMic3-5">
          <mxGeometry relative="1" as="geometry" />
        </mxCell>
        <mxCell id="zB_0BsLLrJVKlSQWmKCA-6" style="edgeStyle=orthogonalEdgeStyle;rounded=0;orthogonalLoop=1;jettySize=auto;html=1;exitX=0.75;exitY=1;exitDx=0;exitDy=0;entryX=0.5;entryY=0;entryDx=0;entryDy=0;strokeColor=#9933FF;dashed=1;" edge="1" parent="1" source="iGXe0XGLhi4e1AOO7spn-5" target="l-hG6_dfn08n77CdrC6H-87">
          <mxGeometry relative="1" as="geometry" />
        </mxCell>
        <mxCell id="iGXe0XGLhi4e1AOO7spn-5" value="Unknown ISP" style="rounded=1;whiteSpace=wrap;html=1;" parent="1" vertex="1">
          <mxGeometry x="440" y="670" width="160" height="40" as="geometry" />
        </mxCell>
        <mxCell id="zB_0BsLLrJVKlSQWmKCA-3" style="edgeStyle=orthogonalEdgeStyle;rounded=0;orthogonalLoop=1;jettySize=auto;html=1;exitX=1;exitY=0;exitDx=0;exitDy=0;entryX=0;entryY=0.5;entryDx=0;entryDy=0;strokeColor=#9933FF;dashed=1;" edge="1" parent="1" source="iGXe0XGLhi4e1AOO7spn-8" target="dMLY6UHvoXBjjhsfL4RV-51">
          <mxGeometry relative="1" as="geometry">
            <Array as="points">
              <mxPoint x="560" y="574" />
              <mxPoint x="560" y="524" />
            </Array>
          </mxGeometry>
        </mxCell>
        <mxCell id="iGXe0XGLhi4e1AOO7spn-8" value="Sender&#39;s IP Address" style="rhombus;whiteSpace=wrap;html=1;fontColor=#FFFFFF;labelBorderColor=none;strokeColor=#33FFFF;" parent="1" vertex="1">
          <mxGeometry x="443" y="551" width="150" height="90" as="geometry" />
        </mxCell>
        <mxCell id="iGXe0XGLhi4e1AOO7spn-11" value="Plain Text &lt;br&gt;Sender&#39;s Message" style="rhombus;whiteSpace=wrap;html=1;strokeColor=#33FFFF;strokeWidth=3;spacingTop=-7;" parent="1" vertex="1">
          <mxGeometry x="443" y="813" width="150" height="80" as="geometry" />
        </mxCell>
        <mxCell id="iGXe0XGLhi4e1AOO7spn-16" value="Unknown Device" style="rounded=1;whiteSpace=wrap;html=1;spacingTop=372;spacingLeft=188;fontSize=14;glass=0;fillOpacity=100;arcSize=5;" parent="1" vertex="1">
          <mxGeometry x="1259" y="1025" width="430" height="430" as="geometry" />
        </mxCell>
        <mxCell id="l-hG6_dfn08n77CdrC6H-19" style="edgeStyle=orthogonalEdgeStyle;rounded=0;orthogonalLoop=1;jettySize=auto;html=1;exitX=0.25;exitY=0;exitDx=0;exitDy=0;entryX=0.5;entryY=1;entryDx=0;entryDy=0;" parent="1" source="iGXe0XGLhi4e1AOO7spn-17" target="PfSQIYIqpnTDep6yMic3-11" edge="1">
          <mxGeometry relative="1" as="geometry" />
        </mxCell>
        <mxCell id="l-hG6_dfn08n77CdrC6H-37" style="edgeStyle=orthogonalEdgeStyle;rounded=0;orthogonalLoop=1;jettySize=auto;html=1;exitX=0.75;exitY=0;exitDx=0;exitDy=0;entryX=0.5;entryY=1;entryDx=0;entryDy=0;" parent="1" target="_pwT6NDrSx-XqgfSnPfN-20" edge="1">
          <mxGeometry relative="1" as="geometry">
            <mxPoint x="1615.5" y="1325" as="sourcePoint" />
            <mxPoint x="1614.375" y="1305" as="targetPoint" />
          </mxGeometry>
        </mxCell>
        <mxCell id="iGXe0XGLhi4e1AOO7spn-17" value="Browser &lt;br&gt;(Firefox or Chrome)" style="rounded=1;whiteSpace=wrap;html=1;" parent="1" vertex="1">
          <mxGeometry x="1482" y="1325" width="167" height="40" as="geometry" />
        </mxCell>
        <mxCell id="iGXe0XGLhi4e1AOO7spn-21" value="Mailvelope Service" style="shape=step;perimeter=stepPerimeter;whiteSpace=wrap;html=1;fixedSize=1;strokeWidth=3;fontSize=13;" parent="1" vertex="1">
          <mxGeometry x="840" y="1356" width="230" height="60" as="geometry" />
        </mxCell>
        <mxCell id="iGXe0XGLhi4e1AOO7spn-41" value="Unknown Email Provider&lt;br&gt;(compatible with Mailvelope)" style="rounded=1;whiteSpace=wrap;html=1;" parent="1" vertex="1">
          <mxGeometry x="841" y="1197" width="210" height="90" as="geometry" />
        </mxCell>
        <mxCell id="iGXe0XGLhi4e1AOO7spn-43" value="Decrypted&lt;br&gt;Sender&#39;s Message" style="rhombus;whiteSpace=wrap;html=1;strokeColor=#33FFFF;strokeWidth=3;" parent="1" vertex="1">
          <mxGeometry x="1282" y="1048" width="180" height="100" as="geometry" />
        </mxCell>
        <mxCell id="iGXe0XGLhi4e1AOO7spn-45" style="edgeStyle=orthogonalEdgeStyle;rounded=0;orthogonalLoop=1;jettySize=auto;html=1;exitX=0.5;exitY=1;exitDx=0;exitDy=0;entryX=0.457;entryY=-0.017;entryDx=0;entryDy=0;entryPerimeter=0;" parent="1" source="iGXe0XGLhi4e1AOO7spn-41" target="iGXe0XGLhi4e1AOO7spn-21" edge="1">
          <mxGeometry relative="1" as="geometry" />
        </mxCell>
        <mxCell id="iGXe0XGLhi4e1AOO7spn-56" style="edgeStyle=orthogonalEdgeStyle;rounded=0;orthogonalLoop=1;jettySize=auto;html=1;exitX=0;exitY=0.5;exitDx=0;exitDy=0;fontColor=#b09500;strokeColor=#b09500;" parent="1" edge="1">
          <mxGeometry relative="1" as="geometry">
            <mxPoint x="1224" y="359" as="targetPoint" />
            <mxPoint x="1257" y="359" as="sourcePoint" />
          </mxGeometry>
        </mxCell>
        <mxCell id="iGXe0XGLhi4e1AOO7spn-55" value="&lt;h1&gt;Anonymous Zone&lt;/h1&gt;&lt;p&gt;All data and metadata collected within this scope should be protected and minimized as much as feasible to make it as difficult as possible to trace back to the Sender.&lt;/p&gt;" style="text;html=1;strokeColor=none;fillColor=none;spacing=5;spacingTop=-20;whiteSpace=wrap;overflow=hidden;rounded=0;fontColor=#b09500;" parent="1" vertex="1">
          <mxGeometry x="1257" y="294" width="270" height="130" as="geometry" />
        </mxCell>
        <mxCell id="iGXe0XGLhi4e1AOO7spn-57" value="&lt;h1&gt;Sender&lt;/h1&gt;&lt;p&gt;A person or group sending an anonymous tip through the Hush Line system.&lt;/p&gt;" style="text;html=1;strokeColor=none;fillColor=none;spacing=5;spacingTop=-20;whiteSpace=wrap;overflow=hidden;rounded=0;fontColor=#33FFFF;" parent="1" vertex="1">
          <mxGeometry x="65" y="304" width="154" height="120" as="geometry" />
        </mxCell>
        <mxCell id="iGXe0XGLhi4e1AOO7spn-59" value="&lt;h1&gt;Receiver&lt;/h1&gt;&lt;p&gt;A person or organization managing the email account receiving anonymous tips through the Hush Line system.&amp;nbsp;&lt;/p&gt;" style="text;html=1;strokeColor=none;fillColor=none;spacing=5;spacingTop=-20;whiteSpace=wrap;overflow=hidden;rounded=0;" parent="1" vertex="1">
          <mxGeometry x="1809" y="1351" width="178" height="117" as="geometry" />
        </mxCell>
        <mxCell id="iGXe0XGLhi4e1AOO7spn-6" value="Custom Hush Line&lt;br style=&quot;font-size: 12px;&quot;&gt;Public Website (HTTPS)" style="rounded=1;whiteSpace=wrap;html=1;spacingTop=-35;fontSize=12;strokeWidth=2;" parent="1" vertex="1">
          <mxGeometry x="725" y="662" width="205" height="90" as="geometry" />
        </mxCell>
        <mxCell id="5497UcmpaK-kZlAdMmjP-1" value="Hush Line App" style="rounded=1;whiteSpace=wrap;html=1;spacingTop=-67;spacing=0;fontSize=14;strokeWidth=2;" parent="1" vertex="1">
          <mxGeometry x="725" y="785" width="445" height="123" as="geometry" />
        </mxCell>
        <mxCell id="5497UcmpaK-kZlAdMmjP-25" style="edgeStyle=orthogonalEdgeStyle;rounded=0;orthogonalLoop=1;jettySize=auto;html=1;exitX=0.5;exitY=1;exitDx=0;exitDy=0;entryX=0.5;entryY=0;entryDx=0;entryDy=0;" parent="1" source="5497UcmpaK-kZlAdMmjP-6" target="iGXe0XGLhi4e1AOO7spn-12" edge="1">
          <mxGeometry relative="1" as="geometry" />
        </mxCell>
        <mxCell id="5497UcmpaK-kZlAdMmjP-6" value="POST" style="rounded=1;whiteSpace=wrap;html=1;dashed=1;dashPattern=1 4;" parent="1" vertex="1">
          <mxGeometry x="754.75" y="714" width="150" height="25" as="geometry" />
        </mxCell>
        <mxCell id="l-hG6_dfn08n77CdrC6H-63" style="edgeStyle=orthogonalEdgeStyle;rounded=0;orthogonalLoop=1;jettySize=auto;html=1;exitX=0.5;exitY=1;exitDx=0;exitDy=0;entryX=0.5;entryY=0;entryDx=0;entryDy=0;" parent="1" source="5497UcmpaK-kZlAdMmjP-7" target="l-hG6_dfn08n77CdrC6H-61" edge="1">
          <mxGeometry relative="1" as="geometry" />
        </mxCell>
        <mxCell id="5497UcmpaK-kZlAdMmjP-7" value="SMTP" style="rounded=1;whiteSpace=wrap;html=1;dashed=1;dashPattern=1 4;" parent="1" vertex="1">
          <mxGeometry x="870.5" y="868" width="150" height="25" as="geometry" />
        </mxCell>
        <mxCell id="_pwT6NDrSx-XqgfSnPfN-18" style="edgeStyle=orthogonalEdgeStyle;rounded=0;orthogonalLoop=1;jettySize=auto;html=1;exitX=0;exitY=0.5;exitDx=0;exitDy=0;entryX=1;entryY=0.5;entryDx=0;entryDy=0;" parent="1" source="dMLY6UHvoXBjjhsfL4RV-14" target="_pwT6NDrSx-XqgfSnPfN-10" edge="1">
          <mxGeometry relative="1" as="geometry" />
        </mxCell>
        <mxCell id="5497UcmpaK-kZlAdMmjP-16" value="&lt;br&gt;&lt;br&gt;&lt;br&gt;SERVER&lt;br&gt;ADMIN" style="shape=actor;whiteSpace=wrap;html=1;strokeColor=#009900;fontColor=#009900;" parent="1" vertex="1">
          <mxGeometry x="1671" y="850" width="70" height="80" as="geometry" />
        </mxCell>
        <mxCell id="5497UcmpaK-kZlAdMmjP-18" value="&lt;h1&gt;Server Admin&lt;/h1&gt;&lt;p&gt;A person, group, or third-party organization managing the Hush Line local or virtual server. This person or organization might be different from the Receiver.&amp;nbsp;&lt;/p&gt;" style="text;html=1;strokeColor=none;fillColor=none;spacing=5;spacingTop=-20;whiteSpace=wrap;overflow=hidden;rounded=0;fontColor=#009900;" parent="1" vertex="1">
          <mxGeometry x="1767" y="809" width="181" height="130" as="geometry" />
        </mxCell>
        <mxCell id="5497UcmpaK-kZlAdMmjP-19" value="&lt;h1 style=&quot;line-height: 50%;&quot;&gt;&lt;font size=&quot;1&quot; style=&quot;&quot;&gt;&lt;b style=&quot;font-size: 30px;&quot;&gt;Hush Line - Data Flow Analysis (WIP DRAFT)&amp;nbsp; 🗺&lt;/b&gt;&lt;/font&gt;&lt;/h1&gt;&lt;font style=&quot;font-size: 14px;&quot;&gt;Diagram detailing the collection points, protections, and transit protocols for each piece of sensitive data to help mitigating potential vulnerabilities and exposure.&lt;/font&gt;" style="text;html=1;strokeColor=none;fillColor=none;spacing=0;spacingTop=0;whiteSpace=wrap;overflow=hidden;rounded=0;spacingBottom=0;verticalAlign=top;" parent="1" vertex="1">
          <mxGeometry x="70" y="65" width="1030" height="90" as="geometry" />
        </mxCell>
        <mxCell id="5497UcmpaK-kZlAdMmjP-20" value="NGINX" style="rounded=1;whiteSpace=wrap;html=1;strokeWidth=1;" parent="1" vertex="1">
          <mxGeometry x="725" y="542" width="445" height="103" as="geometry" />
        </mxCell>
        <mxCell id="5497UcmpaK-kZlAdMmjP-21" style="edgeStyle=orthogonalEdgeStyle;rounded=0;orthogonalLoop=1;jettySize=auto;html=1;exitX=1;exitY=0.5;exitDx=0;exitDy=0;entryX=0.5;entryY=0;entryDx=0;entryDy=0;" parent="1" source="iGXe0XGLhi4e1AOO7spn-12" target="5497UcmpaK-kZlAdMmjP-7" edge="1">
          <mxGeometry relative="1" as="geometry" />
        </mxCell>
        <mxCell id="iGXe0XGLhi4e1AOO7spn-12" value="PGP&lt;br&gt;Encryption" style="ellipse;whiteSpace=wrap;html=1;dashed=1;dashPattern=1 4;" parent="1" vertex="1">
          <mxGeometry x="740" y="805" width="85" height="87" as="geometry" />
        </mxCell>
        <mxCell id="5497UcmpaK-kZlAdMmjP-24" style="edgeStyle=orthogonalEdgeStyle;rounded=0;orthogonalLoop=1;jettySize=auto;html=1;entryX=0;entryY=0.5;entryDx=0;entryDy=0;strokeColor=#33FFFF;" parent="1" source="iGXe0XGLhi4e1AOO7spn-11" target="5497UcmpaK-kZlAdMmjP-6" edge="1">
          <mxGeometry relative="1" as="geometry">
            <Array as="points">
              <mxPoint x="640" y="853" />
              <mxPoint x="640" y="727" />
            </Array>
          </mxGeometry>
        </mxCell>
        <mxCell id="_pwT6NDrSx-XqgfSnPfN-1" value="Receiver&#39;s &lt;br&gt;Email Password" style="rhombus;whiteSpace=wrap;html=1;spacingTop=-8;strokeColor=#33FFFF;" parent="1" vertex="1">
          <mxGeometry x="1517" y="1048" width="150" height="80" as="geometry" />
        </mxCell>
        <mxCell id="l-hG6_dfn08n77CdrC6H-33" style="edgeStyle=orthogonalEdgeStyle;rounded=0;orthogonalLoop=1;jettySize=auto;html=1;exitX=0.5;exitY=0;exitDx=0;exitDy=0;entryX=0.5;entryY=1;entryDx=0;entryDy=0;" parent="1" source="_pwT6NDrSx-XqgfSnPfN-2" target="PfSQIYIqpnTDep6yMic3-15" edge="1">
          <mxGeometry relative="1" as="geometry" />
        </mxCell>
        <mxCell id="_pwT6NDrSx-XqgfSnPfN-2" value="&lt;br&gt;Mailvelope &lt;br&gt;Password" style="rhombus;whiteSpace=wrap;html=1;spacingTop=-14;strokeColor=#33FFFF;" parent="1" vertex="1">
          <mxGeometry x="1297" y="1346" width="150" height="80" as="geometry" />
        </mxCell>
        <mxCell id="_pwT6NDrSx-XqgfSnPfN-7" style="edgeStyle=orthogonalEdgeStyle;rounded=0;orthogonalLoop=1;jettySize=auto;html=1;exitX=0;exitY=0.5;exitDx=0;exitDy=0;entryX=0.75;entryY=0;entryDx=0;entryDy=0;shape=link;" parent="1" source="_pwT6NDrSx-XqgfSnPfN-3" target="5497UcmpaK-kZlAdMmjP-7" edge="1">
          <mxGeometry relative="1" as="geometry" />
        </mxCell>
        <mxCell id="_pwT6NDrSx-XqgfSnPfN-3" value="Receiver&#39;s &lt;br&gt;Email Password" style="rhombus;whiteSpace=wrap;html=1;spacingTop=-8;strokeColor=#33FFFF;" parent="1" vertex="1">
          <mxGeometry x="1013" y="810" width="150" height="80" as="geometry" />
        </mxCell>
        <mxCell id="_pwT6NDrSx-XqgfSnPfN-10" value="Server&lt;br&gt;Access Passwords" style="rhombus;whiteSpace=wrap;html=1;spacingTop=-8;strokeColor=#33FFFF;" parent="1" vertex="1">
          <mxGeometry x="1266" y="870" width="150" height="80" as="geometry" />
        </mxCell>
        <mxCell id="_pwT6NDrSx-XqgfSnPfN-17" style="edgeStyle=orthogonalEdgeStyle;rounded=0;orthogonalLoop=1;jettySize=auto;html=1;exitX=0;exitY=0.5;exitDx=0;exitDy=0;entryX=1.008;entryY=0.957;entryDx=0;entryDy=0;entryPerimeter=0;" parent="1" source="_pwT6NDrSx-XqgfSnPfN-10" target="iGXe0XGLhi4e1AOO7spn-7" edge="1">
          <mxGeometry relative="1" as="geometry" />
        </mxCell>
        <mxCell id="l-hG6_dfn08n77CdrC6H-40" style="edgeStyle=orthogonalEdgeStyle;rounded=0;orthogonalLoop=1;jettySize=auto;html=1;exitX=1;exitY=0.5;exitDx=0;exitDy=0;entryX=1;entryY=0.5;entryDx=0;entryDy=0;" parent="1" source="_pwT6NDrSx-XqgfSnPfN-20" target="_pwT6NDrSx-XqgfSnPfN-2" edge="1">
          <mxGeometry relative="1" as="geometry" />
        </mxCell>
        <mxCell id="zB_0BsLLrJVKlSQWmKCA-12" style="edgeStyle=orthogonalEdgeStyle;rounded=0;orthogonalLoop=1;jettySize=auto;html=1;exitX=0.5;exitY=0;exitDx=0;exitDy=0;entryX=0.5;entryY=1;entryDx=0;entryDy=0;" edge="1" parent="1" source="_pwT6NDrSx-XqgfSnPfN-20" target="_pwT6NDrSx-XqgfSnPfN-1">
          <mxGeometry relative="1" as="geometry" />
        </mxCell>
        <mxCell id="_pwT6NDrSx-XqgfSnPfN-20" value="Possibly Unknown &lt;br&gt;Password Manager" style="rounded=1;whiteSpace=wrap;html=1;dashed=1;dashPattern=8 8;" parent="1" vertex="1">
          <mxGeometry x="1582.5" y="1150" width="63.5" height="150" as="geometry" />
        </mxCell>
        <mxCell id="dMLY6UHvoXBjjhsfL4RV-11" style="edgeStyle=orthogonalEdgeStyle;rounded=0;orthogonalLoop=1;jettySize=auto;html=1;exitX=0.5;exitY=1;exitDx=0;exitDy=0;strokeColor=#994C00;" parent="1" source="dMLY6UHvoXBjjhsfL4RV-10" edge="1">
          <mxGeometry relative="1" as="geometry">
            <mxPoint x="1875" y="785" as="targetPoint" />
          </mxGeometry>
        </mxCell>
        <mxCell id="dMLY6UHvoXBjjhsfL4RV-10" value="&lt;h1&gt;Access Zone&lt;/h1&gt;&lt;p&gt;Any access here could delete or read in clear text the Sender&#39;s message*&lt;/p&gt;&lt;p&gt;*Delete-only if the only access is the Receiver&#39;s Email Password.&amp;nbsp;&lt;/p&gt;" style="text;html=1;strokeColor=none;fillColor=none;spacing=5;spacingTop=-20;whiteSpace=wrap;overflow=hidden;rounded=0;fontColor=#994C00;" parent="1" vertex="1">
          <mxGeometry x="1780" y="630" width="211" height="130" as="geometry" />
        </mxCell>
        <mxCell id="dMLY6UHvoXBjjhsfL4RV-13" style="edgeStyle=orthogonalEdgeStyle;rounded=0;orthogonalLoop=1;jettySize=auto;html=1;exitX=1;exitY=0;exitDx=0;exitDy=0;shape=link;" parent="1" source="iGXe0XGLhi4e1AOO7spn-20" edge="1">
          <mxGeometry relative="1" as="geometry">
            <mxPoint x="1054" y="568" as="targetPoint" />
          </mxGeometry>
        </mxCell>
        <mxCell id="dMLY6UHvoXBjjhsfL4RV-15" value="" style="edgeStyle=orthogonalEdgeStyle;rounded=0;orthogonalLoop=1;jettySize=auto;html=1;exitX=0;exitY=0.75;exitDx=0;exitDy=0;entryX=1;entryY=0.5;entryDx=0;entryDy=0;" parent="1" source="5497UcmpaK-kZlAdMmjP-16" target="dMLY6UHvoXBjjhsfL4RV-14" edge="1">
          <mxGeometry relative="1" as="geometry">
            <mxPoint x="1635" y="914" as="sourcePoint" />
            <mxPoint x="1416" y="914" as="targetPoint" />
          </mxGeometry>
        </mxCell>
        <mxCell id="dMLY6UHvoXBjjhsfL4RV-14" value="Possibly Unknown Authentication Service" style="rounded=1;whiteSpace=wrap;html=1;dashed=1;dashPattern=8 8;" parent="1" vertex="1">
          <mxGeometry x="1476" y="890" width="150" height="40" as="geometry" />
        </mxCell>
        <mxCell id="dMLY6UHvoXBjjhsfL4RV-19" style="edgeStyle=orthogonalEdgeStyle;rounded=0;orthogonalLoop=1;jettySize=auto;html=1;entryX=0.5;entryY=0;entryDx=0;entryDy=0;fontColor=none;noLabel=1;strokeColor=#009900;" parent="1" source="dMLY6UHvoXBjjhsfL4RV-18" edge="1">
          <mxGeometry relative="1" as="geometry">
            <mxPoint x="1706" y="840" as="targetPoint" />
          </mxGeometry>
        </mxCell>
        <mxCell id="dMLY6UHvoXBjjhsfL4RV-18" value="&lt;h1&gt;High Trust Required&lt;/h1&gt;&lt;p&gt;If the person, group, or third-party organization who has access to the server is compromised, and if they can modify the Server&#39;s code, then future Senders could potentially be identified from their IP Addresses if they did not use Tor or a trustworthy VPN service. Additionally, future Senders Messages sent could be read, modified, or deleted.&amp;nbsp;&lt;/p&gt;" style="text;html=1;strokeColor=none;fillColor=none;spacing=5;spacingTop=-20;whiteSpace=wrap;overflow=hidden;rounded=0;fontColor=#009900;" parent="1" vertex="1">
          <mxGeometry x="1460" y="612" width="290" height="158" as="geometry" />
        </mxCell>
        <mxCell id="iGXe0XGLhi4e1AOO7spn-20" value="Logged as 0.0.0.0." style="ellipse;whiteSpace=wrap;html=1;aspect=fixed;dashed=1;dashPattern=1 4;" parent="1" vertex="1">
          <mxGeometry x="753" y="556" width="80" height="80" as="geometry" />
        </mxCell>
        <mxCell id="dMLY6UHvoXBjjhsfL4RV-12" value="Sender&#39;s&lt;br&gt;Time of &lt;br&gt;Server Access" style="rhombus;whiteSpace=wrap;html=1;fontColor=#FFFFFF;labelBorderColor=none;strokeColor=#33FFFF;spacingTop=-8;" parent="1" vertex="1">
          <mxGeometry x="1010" y="552" width="150" height="83" as="geometry" />
        </mxCell>
        <mxCell id="zB_0BsLLrJVKlSQWmKCA-9" style="edgeStyle=orthogonalEdgeStyle;rounded=0;orthogonalLoop=1;jettySize=auto;html=1;exitX=1;exitY=0.5;exitDx=0;exitDy=0;entryX=0;entryY=0.5;entryDx=0;entryDy=0;strokeColor=#9933FF;dashed=1;" edge="1" parent="1" source="dMLY6UHvoXBjjhsfL4RV-20" target="iGXe0XGLhi4e1AOO7spn-5">
          <mxGeometry relative="1" as="geometry">
            <Array as="points">
              <mxPoint x="410" y="571" />
              <mxPoint x="410" y="690" />
            </Array>
          </mxGeometry>
        </mxCell>
        <mxCell id="dMLY6UHvoXBjjhsfL4RV-20" value="Tor Browser" style="rounded=1;whiteSpace=wrap;html=1;dashed=1;strokeColor=#B266FF;" parent="1" vertex="1">
          <mxGeometry x="270" y="551" width="120" height="40" as="geometry" />
        </mxCell>
        <mxCell id="dMLY6UHvoXBjjhsfL4RV-24" value="OR" style="text;html=1;strokeColor=none;fillColor=none;align=center;verticalAlign=middle;whiteSpace=wrap;rounded=0;fontColor=#9933FF;fontStyle=1" parent="1" vertex="1">
          <mxGeometry x="300" y="524" width="60" height="30" as="geometry" />
        </mxCell>
        <mxCell id="zB_0BsLLrJVKlSQWmKCA-4" style="edgeStyle=orthogonalEdgeStyle;rounded=0;orthogonalLoop=1;jettySize=auto;html=1;exitX=1;exitY=0.5;exitDx=0;exitDy=0;entryX=0;entryY=0;entryDx=0;entryDy=0;strokeColor=#9933FF;dashed=1;" edge="1" parent="1" source="dMLY6UHvoXBjjhsfL4RV-51" target="iGXe0XGLhi4e1AOO7spn-20">
          <mxGeometry relative="1" as="geometry" />
        </mxCell>
        <mxCell id="dMLY6UHvoXBjjhsfL4RV-51" value="Tor Network" style="rounded=1;whiteSpace=wrap;html=1;dashed=1;strokeColor=#9933FF;" parent="1" vertex="1">
          <mxGeometry x="607" y="495" width="65" height="57" as="geometry" />
        </mxCell>
        <mxCell id="dMLY6UHvoXBjjhsfL4RV-56" value="OR" style="text;html=1;strokeColor=none;fillColor=none;align=center;verticalAlign=middle;whiteSpace=wrap;rounded=0;fontColor=#9933FF;fontStyle=1" parent="1" vertex="1">
          <mxGeometry x="608.5" y="560" width="60" height="30" as="geometry" />
        </mxCell>
        <mxCell id="dMLY6UHvoXBjjhsfL4RV-62" style="edgeStyle=orthogonalEdgeStyle;rounded=0;orthogonalLoop=1;jettySize=auto;html=1;exitX=1;exitY=0.5;exitDx=0;exitDy=0;entryX=0;entryY=0.5;entryDx=0;entryDy=0;strokeColor=#33FFFF;" parent="1" source="iGXe0XGLhi4e1AOO7spn-8" target="iGXe0XGLhi4e1AOO7spn-20" edge="1">
          <mxGeometry relative="1" as="geometry" />
        </mxCell>
        <mxCell id="dMLY6UHvoXBjjhsfL4RV-68" value="Custom Hush Line&lt;br style=&quot;font-size: 12px;&quot;&gt;Onion Website (Onion Service)" style="rounded=1;whiteSpace=wrap;html=1;spacingTop=-35;fontSize=12;dashed=1;strokeColor=#9933FF;strokeWidth=1;" parent="1" vertex="1">
          <mxGeometry x="970" y="662" width="200" height="90" as="geometry" />
        </mxCell>
        <mxCell id="dMLY6UHvoXBjjhsfL4RV-70" style="edgeStyle=orthogonalEdgeStyle;rounded=0;orthogonalLoop=1;jettySize=auto;html=1;exitX=0.5;exitY=1;exitDx=0;exitDy=0;entryX=0.5;entryY=0;entryDx=0;entryDy=0;" parent="1" source="dMLY6UHvoXBjjhsfL4RV-69" target="iGXe0XGLhi4e1AOO7spn-12" edge="1">
          <mxGeometry relative="1" as="geometry" />
        </mxCell>
        <mxCell id="dMLY6UHvoXBjjhsfL4RV-69" value="POST" style="rounded=1;whiteSpace=wrap;html=1;dashed=1;strokeColor=#9933FF;dashPattern=1 4;" parent="1" vertex="1">
          <mxGeometry x="998.75" y="714" width="150" height="25" as="geometry" />
        </mxCell>
        <mxCell id="dMLY6UHvoXBjjhsfL4RV-73" value="OR" style="text;html=1;strokeColor=none;fillColor=none;align=center;verticalAlign=middle;whiteSpace=wrap;rounded=0;fontColor=#9933FF;fontStyle=1" parent="1" vertex="1">
          <mxGeometry x="921" y="692" width="60" height="30" as="geometry" />
        </mxCell>
        <mxCell id="dMLY6UHvoXBjjhsfL4RV-74" value="&lt;h1&gt;Tor-Only&lt;/h1&gt;&lt;div&gt;&lt;div&gt;With the Tor onion website option, the Sender&#39;s IP Address is concealed even before reaching the Receiver&#39;s Hush Line Server. This provides additional protections because even if the Receiver&#39;s Hush Line Server was compromised and the Server&#39;s code modified, the Sender&#39;s IP Address could still not be known by the&amp;nbsp;Receiver&#39;s&amp;nbsp;&lt;span style=&quot;background-color: initial;&quot;&gt;Hush Line Server.&amp;nbsp;&lt;/span&gt;&lt;/div&gt;&lt;div&gt;&lt;br&gt;&lt;/div&gt;&lt;div&gt;Additionally, the Sender&#39;s&amp;nbsp; ISP could know the Sender used the Tor Network but could not know the Sender visited this Hush Line website. Without the Tor Network, or the use of a trustworthy VPN, the Sender&#39;s ISP could know the Sender visited the Receiver&#39;s Hush Line website, but could not read the Sender&#39;s Message content (HTTPS).&lt;/div&gt;&lt;/div&gt;" style="text;html=1;strokeColor=none;fillColor=none;spacing=5;spacingTop=-20;whiteSpace=wrap;overflow=hidden;rounded=0;fontColor=#B266FF;" parent="1" vertex="1">
          <mxGeometry x="60" y="473" width="160" height="502" as="geometry" />
        </mxCell>
        <mxCell id="l-hG6_dfn08n77CdrC6H-44" style="edgeStyle=orthogonalEdgeStyle;rounded=0;orthogonalLoop=1;jettySize=auto;html=1;exitX=0;exitY=0.5;exitDx=0;exitDy=0;entryX=1;entryY=0.5;entryDx=0;entryDy=0;" parent="1" source="PfSQIYIqpnTDep6yMic3-11" target="PfSQIYIqpnTDep6yMic3-15" edge="1">
          <mxGeometry relative="1" as="geometry" />
        </mxCell>
        <mxCell id="PfSQIYIqpnTDep6yMic3-11" value="Mailvelope Extension (PGP)" style="rounded=1;whiteSpace=wrap;html=1;" parent="1" vertex="1">
          <mxGeometry x="1486" y="1240" width="70" height="60" as="geometry" />
        </mxCell>
        <mxCell id="l-hG6_dfn08n77CdrC6H-46" style="edgeStyle=orthogonalEdgeStyle;rounded=0;orthogonalLoop=1;jettySize=auto;html=1;exitX=0;exitY=0.5;exitDx=0;exitDy=0;entryX=1;entryY=0.5;entryDx=0;entryDy=0;" parent="1" source="PfSQIYIqpnTDep6yMic3-13" target="PfSQIYIqpnTDep6yMic3-15" edge="1">
          <mxGeometry relative="1" as="geometry" />
        </mxCell>
        <mxCell id="PfSQIYIqpnTDep6yMic3-13" value="GnuPG program" style="rounded=1;whiteSpace=wrap;html=1;" parent="1" vertex="1">
          <mxGeometry x="1486" y="1149" width="70" height="56" as="geometry" />
        </mxCell>
        <mxCell id="PfSQIYIqpnTDep6yMic3-14" value="OR" style="text;html=1;strokeColor=none;fillColor=none;align=center;verticalAlign=middle;whiteSpace=wrap;rounded=0;fontColor=#FFFFFF;fontStyle=1" parent="1" vertex="1">
          <mxGeometry x="1491" y="1209" width="60" height="30" as="geometry" />
        </mxCell>
        <mxCell id="l-hG6_dfn08n77CdrC6H-34" style="edgeStyle=orthogonalEdgeStyle;rounded=0;orthogonalLoop=1;jettySize=auto;html=1;exitX=0.5;exitY=0;exitDx=0;exitDy=0;entryX=0.5;entryY=1;entryDx=0;entryDy=0;" parent="1" source="PfSQIYIqpnTDep6yMic3-15" target="iGXe0XGLhi4e1AOO7spn-43" edge="1">
          <mxGeometry relative="1" as="geometry" />
        </mxCell>
        <mxCell id="PfSQIYIqpnTDep6yMic3-15" value="&lt;br&gt;Mailvelope &lt;br&gt;Private Key" style="rhombus;whiteSpace=wrap;html=1;spacingTop=-16;strokeColor=#33FFFF;" parent="1" vertex="1">
          <mxGeometry x="1297" y="1184" width="150" height="80" as="geometry" />
        </mxCell>
        <mxCell id="l-hG6_dfn08n77CdrC6H-51" value="Sensitive&lt;br style=&quot;font-size: 10px;&quot;&gt;Data" style="rhombus;whiteSpace=wrap;html=1;strokeColor=#33FFFF;fontSize=10;spacing=2;spacingTop=3;" parent="1" vertex="1">
          <mxGeometry x="154" y="171" width="80" height="50" as="geometry" />
        </mxCell>
        <mxCell id="l-hG6_dfn08n77CdrC6H-53" value="Transit&amp;nbsp;Protocols&lt;br&gt;and Protections" style="rounded=1;whiteSpace=wrap;html=1;dashed=1;dashPattern=1 4;fontSize=10;" parent="1" vertex="1">
          <mxGeometry x="249" y="180" width="120" height="32" as="geometry" />
        </mxCell>
        <mxCell id="l-hG6_dfn08n77CdrC6H-55" value="&lt;meta charset=&quot;utf-8&quot; style=&quot;font-size: 10px;&quot;&gt;&lt;span style=&quot;color: rgb(240, 240, 240); font-family: Helvetica; font-size: 10px; font-style: normal; font-variant-ligatures: normal; font-variant-caps: normal; font-weight: 400; letter-spacing: normal; orphans: 2; text-align: center; text-indent: 0px; text-transform: none; widows: 2; word-spacing: 0px; -webkit-text-stroke-width: 0px; background-color: rgb(27, 29, 30); text-decoration-thickness: initial; text-decoration-style: initial; text-decoration-color: initial; float: none; display: inline !important;&quot;&gt;Tor Network&lt;/span&gt;" style="rounded=1;whiteSpace=wrap;html=1;dashed=1;strokeColor=#B266FF;fontSize=10;" parent="1" vertex="1">
          <mxGeometry x="479" y="181" width="70" height="30" as="geometry" />
        </mxCell>
        <mxCell id="l-hG6_dfn08n77CdrC6H-57" value="&lt;span style=&quot;color: rgb(240, 240, 240); font-family: Helvetica; font-size: 10px; font-style: normal; font-variant-ligatures: normal; font-variant-caps: normal; font-weight: 400; letter-spacing: normal; orphans: 2; text-align: center; text-indent: 0px; text-transform: none; widows: 2; word-spacing: 0px; -webkit-text-stroke-width: 0px; background-color: rgb(27, 29, 30); text-decoration-thickness: initial; text-decoration-style: initial; text-decoration-color: initial; float: none; display: inline !important;&quot;&gt;hypothetical&lt;/span&gt;" style="rounded=1;whiteSpace=wrap;html=1;dashed=1;strokeColor=#FFFFFF;fontSize=10;dashPattern=8 8;" parent="1" vertex="1">
          <mxGeometry x="389" y="181" width="70" height="30" as="geometry" />
        </mxCell>
        <mxCell id="l-hG6_dfn08n77CdrC6H-59" value="&lt;span style=&quot;color: rgb(240, 240, 240); font-family: Helvetica; font-size: 10px; font-style: normal; font-variant-ligatures: normal; font-variant-caps: normal; font-weight: 400; letter-spacing: normal; orphans: 2; text-align: center; text-indent: 0px; text-transform: none; widows: 2; word-spacing: 0px; -webkit-text-stroke-width: 0px; background-color: rgb(27, 29, 30); text-decoration-thickness: initial; text-decoration-style: initial; text-decoration-color: initial; float: none; display: inline !important;&quot;&gt;User&lt;br&gt;Hush Line&lt;/span&gt;" style="shape=actor;whiteSpace=wrap;html=1;strokeColor=#FFFFFF;fontSize=10;spacingTop=25;" parent="1" vertex="1">
          <mxGeometry x="89" y="166" width="50" height="55" as="geometry" />
        </mxCell>
        <mxCell id="l-hG6_dfn08n77CdrC6H-64" style="edgeStyle=orthogonalEdgeStyle;rounded=0;orthogonalLoop=1;jettySize=auto;html=1;exitX=0.5;exitY=1;exitDx=0;exitDy=0;entryX=0.5;entryY=0;entryDx=0;entryDy=0;" parent="1" source="l-hG6_dfn08n77CdrC6H-61" target="iGXe0XGLhi4e1AOO7spn-41" edge="1">
          <mxGeometry relative="1" as="geometry" />
        </mxCell>
        <mxCell id="l-hG6_dfn08n77CdrC6H-61" value="Encrypted&lt;br&gt;Sender&#39;s Message" style="shape=rhombus;double=1;perimeter=rhombusPerimeter;whiteSpace=wrap;html=1;align=center;strokeColor=#3399FF;" parent="1" vertex="1">
          <mxGeometry x="828.5" y="1010" width="234" height="117" as="geometry" />
        </mxCell>
        <mxCell id="PfSQIYIqpnTDep6yMic3-5" value="HTTPS" style="rounded=1;whiteSpace=wrap;html=1;dashed=1;dashPattern=1 4;" parent="1" vertex="1">
          <mxGeometry x="435" y="741" width="61" height="48" as="geometry" />
        </mxCell>
        <mxCell id="l-hG6_dfn08n77CdrC6H-78" value="" style="edgeStyle=orthogonalEdgeStyle;rounded=0;orthogonalLoop=1;jettySize=auto;html=1;exitX=0;exitY=0.5;exitDx=0;exitDy=0;entryX=1;entryY=0.5;entryDx=0;entryDy=0;startArrow=classic;startFill=1;" parent="1" source="_pwT6NDrSx-XqgfSnPfN-2" target="iGXe0XGLhi4e1AOO7spn-21" edge="1">
          <mxGeometry relative="1" as="geometry">
            <mxPoint x="1287" y="1386" as="sourcePoint" />
            <mxPoint x="1210" y="1386" as="targetPoint" />
          </mxGeometry>
        </mxCell>
        <mxCell id="l-hG6_dfn08n77CdrC6H-84" value="" style="edgeStyle=orthogonalEdgeStyle;rounded=0;orthogonalLoop=1;jettySize=auto;html=1;exitX=0.5;exitY=0;exitDx=0;exitDy=0;entryX=0.5;entryY=0;entryDx=0;entryDy=0;" parent="1" source="_pwT6NDrSx-XqgfSnPfN-1" target="l-hG6_dfn08n77CdrC6H-79" edge="1">
          <mxGeometry relative="1" as="geometry">
            <mxPoint x="1560" y="1048" as="sourcePoint" />
            <mxPoint x="1052" y="1212" as="targetPoint" />
            <Array as="points">
              <mxPoint x="1560" y="995" />
              <mxPoint x="1149" y="995" />
            </Array>
          </mxGeometry>
        </mxCell>
        <mxCell id="l-hG6_dfn08n77CdrC6H-86" style="edgeStyle=orthogonalEdgeStyle;rounded=0;orthogonalLoop=1;jettySize=auto;html=1;exitX=0;exitY=0.5;exitDx=0;exitDy=0;" parent="1" source="l-hG6_dfn08n77CdrC6H-79" edge="1">
          <mxGeometry relative="1" as="geometry">
            <mxPoint x="1051" y="1242" as="targetPoint" />
          </mxGeometry>
        </mxCell>
        <mxCell id="l-hG6_dfn08n77CdrC6H-79" value="Unknown ISP" style="rounded=1;whiteSpace=wrap;html=1;" parent="1" vertex="1">
          <mxGeometry x="1098" y="1222" width="120" height="40" as="geometry" />
        </mxCell>
        <mxCell id="l-hG6_dfn08n77CdrC6H-87" value="Onion&lt;br&gt;Service" style="rounded=1;whiteSpace=wrap;html=1;dashed=1;strokeColor=#9933FF;dashPattern=1 4;" parent="1" vertex="1">
          <mxGeometry x="540" y="740" width="64" height="49" as="geometry" />
        </mxCell>
        <mxCell id="l-hG6_dfn08n77CdrC6H-88" value="OR" style="text;html=1;strokeColor=none;fillColor=none;align=center;verticalAlign=middle;whiteSpace=wrap;rounded=0;fontColor=#9933FF;fontStyle=1" parent="1" vertex="1">
          <mxGeometry x="489" y="749.5" width="60" height="30" as="geometry" />
        </mxCell>
        <mxCell id="l-hG6_dfn08n77CdrC6H-100" style="edgeStyle=orthogonalEdgeStyle;rounded=0;orthogonalLoop=1;jettySize=auto;html=1;exitX=0;exitY=0.75;exitDx=0;exitDy=0;entryX=1.007;entryY=0.958;entryDx=0;entryDy=0;entryPerimeter=0;strokeColor=#FFFFFF;" parent="1" source="iGXe0XGLhi4e1AOO7spn-2" target="iGXe0XGLhi4e1AOO7spn-16" edge="1">
          <mxGeometry relative="1" as="geometry" />
        </mxCell>
        <mxCell id="zB_0BsLLrJVKlSQWmKCA-7" style="edgeStyle=orthogonalEdgeStyle;rounded=0;orthogonalLoop=1;jettySize=auto;html=1;exitX=0.5;exitY=1;exitDx=0;exitDy=0;entryX=0.153;entryY=0.338;entryDx=0;entryDy=0;entryPerimeter=0;" edge="1" parent="1" source="PfSQIYIqpnTDep6yMic3-5" target="iGXe0XGLhi4e1AOO7spn-11">
          <mxGeometry relative="1" as="geometry" />
        </mxCell>
        <mxCell id="zB_0BsLLrJVKlSQWmKCA-8" style="edgeStyle=orthogonalEdgeStyle;rounded=0;orthogonalLoop=1;jettySize=auto;html=1;exitX=0.5;exitY=1;exitDx=0;exitDy=0;entryX=0.857;entryY=0.375;entryDx=0;entryDy=0;entryPerimeter=0;strokeColor=#9933FF;dashed=1;" edge="1" parent="1" source="l-hG6_dfn08n77CdrC6H-87" target="iGXe0XGLhi4e1AOO7spn-11">
          <mxGeometry relative="1" as="geometry" />
        </mxCell>
        <mxCell id="zB_0BsLLrJVKlSQWmKCA-14" value="Last update: 2023-12-22" style="text;html=1;strokeColor=none;fillColor=none;align=center;verticalAlign=middle;whiteSpace=wrap;rounded=0;fontColor=#FFFFFF;" vertex="1" parent="1">
          <mxGeometry x="62" y="240" width="150" height="30" as="geometry" />
        </mxCell>
      </root>
    </mxGraphModel>
  </diagram>
</mxfile>
